<?xml version="1.0" encoding="UTF-8" standalone="no"?><svg xmlns="http://www.w3.org/2000/svg" xmlns:xlink="http://www.w3.org/1999/xlink" contentScriptType="application/ecmascript" contentStyleType="text/css" height="186px" preserveAspectRatio="none" style="width:124px;height:186px;background:#00000000;" version="1.1" viewBox="0 0 124 186" width="124px" zoomAndPan="magnify"><defs><filter height="300%" id="f5aygmejkdx0d" width="300%" x="-1" y="-1"><feGaussianBlur result="blurOut" stdDeviation="2.0"/><feColorMatrix in="blurOut" result="blurOut2" type="matrix" values="0 0 0 0 0 0 0 0 0 0 0 0 0 0 0 0 0 0 .4 0"/><feOffset dx="4.0" dy="4.0" in="blurOut2" result="blurOut3"/><feBlend in="SourceGraphic" in2="blurOut3" mode="normal"/></filter></defs><g><!--MD5=[120b60bf9abf633a2955f9464b17ac4b]
class bob--><rect codeLine="4" fill="#FEFECE" filter="url(#f5aygmejkdx0d)" height="52.8047" id="bob" style="stroke:#A80036;stroke-width:1.5;" width="103" x="7" y="120"/><ellipse cx="43.15" cy="136" fill="#ADD1B2" rx="11" ry="11" style="stroke:#A80036;stroke-width:1.0;"/><path d="M46.1188,141.6406 Q45.5406,141.9375 44.9,142.0781 Q44.2594,142.2344 43.5563,142.2344 Q41.0563,142.2344 39.7281,140.5938 Q38.4156,138.9375 38.4156,135.8125 Q38.4156,132.6875 39.7281,131.0313 Q41.0563,129.375 43.5563,129.375 Q44.2594,129.375 44.9,129.5313 Q45.5563,129.6875 46.1188,129.9844 L46.1188,132.7031 Q45.4938,132.125 44.9,131.8594 Q44.3063,131.5781 43.6813,131.5781 Q42.3375,131.5781 41.65,132.6563 Q40.9625,133.7188 40.9625,135.8125 Q40.9625,137.9063 41.65,138.9844 Q42.3375,140.0469 43.6813,140.0469 Q44.3063,140.0469 44.9,139.7813 Q45.4938,139.5 46.1188,138.9219 L46.1188,141.6406 Z " fill="#000000"/><text fill="#000000" font-family="sans-serif" font-size="12" lengthAdjust="spacing" textLength="24" x="61.85" y="140.1543">bob</text><line style="stroke:#A80036;stroke-width:1.5;" x1="8" x2="109" y1="152" y2="152"/><ellipse cx="18" cy="163" rx="3" ry="3" style="stroke:#038048;stroke-width:1.0;fill:none;"/><text fill="#000000" font-family="sans-serif" font-size="11" lengthAdjust="spacing" textLength="77" x="27" y="166.2104">mode : string</text><!--MD5=[bc3a30f1d15e2a65c1dd8366b24f7455]
class bobby--><rect codeLine="7" fill="#FEFECE" filter="url(#f5aygmejkdx0d)" height="52.8047" id="bobby" style="stroke:#A80036;stroke-width:1.5;" width="103" x="7" y="7"/><ellipse cx="36.4" cy="23" fill="#B4A7E5" rx="11" ry="11" style="stroke:#A80036;stroke-width:1.0;"/><path d="M32.3219,18.7656 L32.3219,16.6094 L39.7125,16.6094 L39.7125,18.7656 L37.2438,18.7656 L37.2438,26.8438 L39.7125,26.8438 L39.7125,29 L32.3219,29 L32.3219,26.8438 L34.7906,26.8438 L34.7906,18.7656 L32.3219,18.7656 Z " fill="#000000"/><text fill="#000000" font-family="sans-serif" font-size="12" font-style="italic" lengthAdjust="spacing" textLength="39" x="53.6" y="27.1543">bobby</text><line style="stroke:#A80036;stroke-width:1.5;" x1="8" x2="109" y1="39" y2="39"/><ellipse cx="18" cy="50" rx="3" ry="3" style="stroke:#038048;stroke-width:1.0;fill:none;"/><text fill="#000000" font-family="sans-serif" font-size="11" lengthAdjust="spacing" textLength="77" x="27" y="53.2104">mode : string</text><!--MD5=[c4b511fa9299ae0382cd907aa03c046e]
reverse link bobby to bob--><path codeLine="10" d="M58.5,80.34 C58.5,93.85 58.5,108.15 58.5,119.89 " fill="none" id="bobby-backto-bob" style="stroke:#A80036;stroke-width:1.0;stroke-dasharray:7.0,7.0;"/><polygon fill="none" points="51.5,80.24,58.5,60.24,65.5,80.24,51.5,80.24" style="stroke:#A80036;stroke-width:1.0;"/><!--MD5=[954a733d995709c238e4497ac708fd59]
@startuml
skinparam BackgroundColor transparent
hide empty methods
hide empty fields
class "bob" {
    +mode : string
}
interface "bobby" {
    +mode : string
}
"bobby" <|.. "bob"
@enduml

PlantUML version 1.2021.14(Fri Nov 12 11:46:50 EST 2021)
(GPL source distribution)
Java Runtime: OpenJDK Runtime Environment
JVM: OpenJDK 64-Bit Server VM
Default Encoding: UTF-8
Language: en
Country: US
--></g></svg>